<svg xmlns="http://www.w3.org/2000/svg" viewBox="0 0 16 16" fill="currentColor">
  <path opacity=".4" d="M2.25 5.5a.75.75 0 0 0-.75.75v7.5c0 .414.336.75.75.75h7.5a.75.75 0 0 0 .75-.75V13H12v.75A2.25 2.25 0 0 1 9.75 16h-7.5A2.25 2.25 0 0 1 0 13.75v-7.5A2.25 2.25 0 0 1 2.25 4h.625v1.5z"/>
  <path d="M4 2.25A2.25 2.25 0 0 1 6.25 0h7.5A2.25 2.25 0 0 1 16 2.25v7.5A2.25 2.25 0 0 1 13.75 12h-7.5A2.25 2.25 0 0 1 4 9.75zm2.25-.75a.75.75 0 0 0-.75.75v7.5c0 .414.336.75.75.75h7.5a.75.75 0 0 0 .75-.75v-7.5a.75.75 0 0 0-.75-.75z"/>
</svg>