<svg width="84" height="85" viewBox="0 0 84 85" fill="none" xmlns="http://www.w3.org/2000/svg">
<path opacity="0.15" d="M83.9985 78.9207C83.9985 80.3152 83.4445 81.6525 82.4585 82.6385C81.4725 83.6245 80.1352 84.1784 78.7408 84.1784H32.5098L82.1057 63.6366C82.7857 63.3527 83.4166 63.0109 83.9985 62.6113V78.9207Z" fill="#68CDF2"/>
<path opacity="0.3" d="M82.8558 52.0231C83.3889 53.3102 83.3893 54.7563 82.8569 56.0438C82.3246 57.3312 81.3031 58.3548 80.0166 58.8896L37.2715 76.5923L75.2637 38.6054C75.7789 38.0866 76.2293 37.5346 76.6149 36.9492L82.8558 52.0231Z" fill="#CA63DE"/>
<path opacity="0.45" d="M71.4942 27.5411C71.9831 28.0294 72.3709 28.6093 72.6355 29.2476C72.9001 29.8858 73.0363 30.57 73.0363 31.2609C73.0363 31.9519 72.9001 32.6361 72.6355 33.2743C72.3709 33.9126 71.9831 34.4925 71.4942 34.9808L38.8281 67.6364L59.3437 18.1088C59.6241 17.4253 59.8309 16.7295 59.9641 16.0215L71.4942 27.5411Z" fill="#FFA35A"/>
<path opacity="0.6" d="M51.6363 9.27876C52.9237 9.8126 53.9465 10.8357 54.4798 12.1233C55.0132 13.4109 55.0135 14.8575 54.4808 16.1453L36.8096 58.8116V5.25661C36.8061 4.48899 36.7237 3.7459 36.5625 3.02734L51.6363 9.27876Z" fill="#5ECB71"/>
<path d="M26.2885 0C27.683 0 29.0203 0.553935 30.0063 1.53995C30.9923 2.52596 31.5462 3.86328 31.5462 5.25771V68.3502C31.5462 72.5335 29.8844 76.5454 26.9264 79.5035C23.9684 82.4615 19.9564 84.1233 15.7731 84.1233C11.5898 84.1233 7.57787 82.4615 4.61984 79.5035C1.66181 76.5454 0 72.5335 0 68.3502L0 5.25771C0 3.86328 0.553935 2.52596 1.53995 1.53995C2.52596 0.553935 3.86328 0 5.25771 0L26.2885 0ZM15.7731 63.0925C14.3787 63.0925 13.0414 63.6464 12.0554 64.6324C11.0693 65.6184 10.5154 66.9558 10.5154 68.3502C10.5154 69.7446 11.0693 71.0819 12.0554 72.0679C13.0414 73.054 14.3787 73.6079 15.7731 73.6079C17.1675 73.6079 18.5049 73.054 19.4909 72.0679C20.4769 71.0819 21.0308 69.7446 21.0308 68.3502C21.0308 66.9558 20.4769 65.6184 19.4909 64.6324C18.5049 63.6464 17.1675 63.0925 15.7731 63.0925Z" fill="#FF678D"/>
</svg>
