<svg width="371" height="377" viewBox="0 0 371 377" fill="none" xmlns="http://www.w3.org/2000/svg">
<path d="M70.3164 190.805H127.597V320.773H70.3164V190.805Z" fill="#1FBCFD"/>
<path d="M16.5918 158.807H185.669V214.112H16.5918V158.807Z" fill="#47D1FD"/>
<path d="M0 308.133C16.065 306.026 34.7636 303.392 56.0959 300.232C77.6915 297.071 100.472 293.648 124.438 289.961C148.404 286.01 172.106 282.06 195.545 278.109L199.496 329.07C178.427 333.547 156.963 337.892 135.104 342.106C113.509 346.583 92.4397 350.797 71.8975 354.747C51.6187 358.961 32.7884 362.78 15.4066 366.204L0 308.133Z" fill="#08599D"/>
<path d="M1.18555 65.1816H358.698V121.277H1.18555V65.1816Z" fill="#5ECC71"/>
<path d="M191.199 3.16016H253.221C252.167 33.1833 252.299 63.2064 253.616 93.2296C254.933 123.253 257.171 151.696 260.331 178.559C263.755 205.158 267.837 228.86 272.578 249.666C277.318 270.471 282.585 286.8 288.379 298.651C294.173 310.502 300.231 316.428 306.551 316.428C310.238 316.428 313.135 310.897 315.242 299.836C317.349 288.512 318.929 270.866 319.983 246.901C326.567 253.485 334.468 260.069 343.685 266.653C353.166 272.973 361.989 277.582 370.153 280.479C367.519 306.815 363.437 326.831 357.907 340.525C352.376 354.484 345.002 363.965 335.784 368.968C326.83 374.236 315.374 376.869 301.416 376.869C286.404 376.869 273.236 371.734 261.912 361.463C250.85 351.455 241.238 337.497 233.074 319.588C224.909 301.68 218.062 280.743 212.531 256.777C207.264 232.811 203.05 207.001 199.89 179.349C196.73 151.432 194.491 122.594 193.174 92.8345C191.858 62.8114 191.199 32.9199 191.199 3.16016Z" fill="#FFA359"/>
<path d="M264.678 31.2083L302.602 0C308.132 3.68705 314.058 8.03251 320.379 13.0364C326.699 17.7769 332.625 22.649 338.155 27.6529C343.949 32.6567 348.558 37.2656 351.982 41.4793L311.688 75.8479C308.791 71.3708 304.709 66.4986 299.441 61.2314C294.174 55.9642 288.512 50.697 282.455 45.4298C276.397 40.1625 270.472 35.422 264.678 31.2083Z" fill="#FF678D"/>
</svg>
